<?xml version="1.0" encoding="UTF-8"?>
<svg width="100px" height="88px" viewBox="0 0 100 88" version="1.1" xmlns="http://www.w3.org/2000/svg" xmlns:xlink="http://www.w3.org/1999/xlink">
    <!-- Generator: sketchtool 64 (101010) - https://sketch.com -->
    <title>84ADA78D-A7A8-4243-B729-DD092C30AD07</title>
    <desc>Created with sketchtool.</desc>
    <g id="Components" stroke="none" stroke-width="1" fill="none" fill-rule="evenodd">
        <g id="Homepage---Darker-Button-Area-V1" transform="translate(-220.000000, -592.000000)">
            <g id="Block/Icon-Square" transform="translate(140.000000, 536.000000)">
                <g id="Icon/Geography" transform="translate(73.000000, 44.000000)">
                    <g id="Group" transform="translate(9.000000, 14.000000)">
                        <path d="M35,7.49965655 C35,6.11897239 33.8808739,5 32.5,5 C31.1191261,5 30,6.11897239 30,7.49965655 C30,8.88034071 31.1191261,10 32.5,10 C33.8808739,10 35,8.88034071 35,7.49965655" id="Fill-1" fill="#35B0CB"></path>
                        <polygon id="Fill-5" fill="#35B0CB" points="0 75 10 75 10 42 0 42"></polygon>
                        <polygon id="Fill-7" fill="#D2B859" points="84 75 94 75 94 25 84 25"></polygon>
                        <polygon id="Fill-8" fill="#D2B859" points="28 75 38 75 38 24 28 24"></polygon>
                        <path d="M40,7.5 C40,3.3578112 36.6421888,0 32.5,0 C28.3578112,0 25,3.3578112 25,7.5 C25,11.6421888 28.3578112,15 32.5,15 C36.6421888,15 40,11.6421888 40,7.5 Z" id="Stroke-9" stroke="#344154" stroke-width="3"></path>
                        <path d="M91,8.49965655 C91,7.11897239 89.8810276,6 88.4996565,6 C87.1196593,6 86,7.11897239 86,8.49965655 C86,9.88034071 87.1196593,11 88.4996565,11 C89.8810276,11 91,9.88034071 91,8.49965655" id="Fill-10" fill="#35B0CB"></path>
                        <path d="M96,8.5 C96,4.3578112 92.6421888,1 88.5,1 C84.3578112,1 81,4.3578112 81,8.5 C81,12.6421888 84.3578112,16 88.5,16 C92.6421888,16 96,12.6421888 96,8.5 Z" id="Stroke-11" stroke="#344154" stroke-width="3"></path>
                        <polygon id="Fill-12" fill="#35B0CB" points="56 75 66 75 66 40 56 40"></polygon>
                        <path d="M65,23.5 C65,21.0145813 62.9854187,19 60.5,19 C58.0145813,19 56,21.0145813 56,23.5 C56,25.9854187 58.0145813,28 60.5,28 C62.9854187,28 65,25.9854187 65,23.5 Z" id="Stroke-13" stroke="#344154" stroke-width="3"></path>
                        <path d="M9,25.5 C9,23.0145813 6.98522022,21 4.49955661,21 C2.01477978,21 0,23.0145813 0,25.5 C0,27.9854187 2.01477978,30 4.49955661,30 C6.98522022,30 9,27.9854187 9,25.5 Z" id="Stroke-14" stroke="#344154" stroke-width="3"></path>
                        <line x1="8" y1="22" x2="26" y2="11" id="Stroke-15" stroke="#344154" stroke-width="3"></line>
                        <line x1="39" y1="10" x2="56" y2="21" id="Stroke-16" stroke="#344154" stroke-width="3"></line>
                        <line x1="65" y1="21" x2="82" y2="11" id="Stroke-17" stroke="#344154" stroke-width="3"></line>
                        <line x1="0" y1="84.5" x2="94" y2="84.5" id="Stroke-3" stroke="#344154" stroke-width="3"></line>
                    </g>
                </g>
            </g>
        </g>
    </g>
</svg>